# xmcd
#
# Track frame offsets:
#	150
#	18250
#	47325
#
# Disc length: 863 seconds
#
# Revision: 0
# Processed by: cddbd v1.5.2PL0 Copyright (c) Steve Scherf et al.
# Submitted via: audiograbber 1.83.01
#
DISCID=15035d03
DTITLE=DJ Robert Slade - Let your Love flow Club Play
DYEAR=1993
DGENRE=Club Play
TTITLE0=Let your love flow
TTITLE1=Let your love flow
TTITLE2=Go on Hollday
EXTD=1. Let your love flow 93 Radio Edith 3:57\n2. Let your love flow 93 Extend
EXTD=ed Version 6:24\n3. Go on a Hollday Anticapella 3:53
EXTT0=
EXTT1=
EXTT2=
PLAYORDER=
